<?xml version="1.0" standalone="yes"?>

<svg version="1.1" viewBox="0.0 0.0 800.0 600.0" fill="none" stroke="none" stroke-linecap="square" stroke-miterlimit="10" xmlns="http://www.w3.org/2000/svg" xmlns:xlink="http://www.w3.org/1999/xlink"><clipPath id="p.0"><path d="m0 0l800.0 0l0 600.0l-800.0 0l0 -600.0z" clip-rule="nonzero"></path></clipPath><g clip-path="url(#p.0)"><path fill="#000000" fill-opacity="0.0" d="m0 0l800.0 0l0 600.0l-800.0 0z" fill-rule="nonzero"></path><path fill="#d9d2e9" d="m281.3097 283.32022c-16.177155 -20.708496 18.9068 -75.139404 78.36221 -121.574814l0 0c59.455414 -46.435402 120.76773 -67.291176 136.94489 -46.582672l0 0c16.177155 20.708496 -18.9068 75.13939 -78.36221 121.5748l0 0c-59.455414 46.43541 -120.7677 67.29118 -136.94489 46.582687z" fill-rule="nonzero"></path><path stroke="#d9d2e9" stroke-width="1.0" stroke-linejoin="round" stroke-linecap="butt" d="m281.3097 283.32022c-16.177155 -20.708496 18.9068 -75.139404 78.36221 -121.574814l0 0c59.455414 -46.435402 120.76773 -67.291176 136.94489 -46.582672l0 0c16.177155 20.708496 -18.9068 75.13939 -78.36221 121.5748l0 0c-59.455414 46.43541 -120.7677 67.29118 -136.94489 46.582687z" fill-rule="nonzero"></path><path fill="#b4a7d6" d="m235.70695 315.8107l-5.7322845 80.944855l-25.094284 -28.557709l1.9342804 -27.313812l-27.653885 -1.9555359l-25.40657 -28.913086z" fill-rule="nonzero"></path><path stroke="#d9d2e9" stroke-width="1.0" stroke-linejoin="round" stroke-linecap="butt" d="m235.70695 315.8107l-5.7322845 80.944855l-25.094284 -28.557709l1.9342804 -27.313812l-27.653885 -1.9555359l-25.40657 -28.913086z" fill-rule="nonzero"></path><path fill="#b4a7d6" d="m356.05008 265.46216l52.91339 -48.818893l38.362213 147.68504z" fill-rule="nonzero"></path><path stroke="#d9d2e9" stroke-width="1.0" stroke-linejoin="round" stroke-linecap="butt" d="m356.05008 265.46216l52.91339 -48.818893l38.362213 147.68504z" fill-rule="nonzero"></path><path fill="#b4a7d6" d="m320.0503 226.04507l52.91339 -48.818893l-144.81891 -50.740158z" fill-rule="nonzero"></path><path stroke="#d9d2e9" stroke-width="1.0" stroke-linejoin="round" stroke-linecap="butt" d="m320.0503 226.04507l52.91339 -48.818893l-144.81891 -50.740158z" fill-rule="nonzero"></path><path fill="#efefef" d="m212.99475 334.87927l0 0c-12.245941 -16.26413 27.456177 -66.79602 88.677155 -112.86615l0 0c61.220978 -46.070114 120.77771 -70.232635 133.02362 -53.968506l0 0c12.245941 16.26413 -27.456177 66.796036 -88.677155 112.86615l0 0c-61.220978 46.0701 -120.77768 70.232635 -133.02362 53.968506z" fill-rule="nonzero"></path><path stroke="#d9d2e9" stroke-width="1.0" stroke-linejoin="round" stroke-linecap="butt" d="m212.99475 334.87927l0 0c-12.245941 -16.26413 27.456177 -66.79602 88.677155 -112.86615l0 0c61.220978 -46.070114 120.77771 -70.232635 133.02362 -53.968506l0 0c12.245941 16.26413 -27.456177 66.796036 -88.677155 112.86615l0 0c-61.220978 46.0701 -120.77768 70.232635 -133.02362 53.968506z" fill-rule="nonzero"></path><path fill="#000000" fill-opacity="0.0" d="m217.0 157.7769l-117.00787 97.00787" fill-rule="nonzero"></path><path stroke="#00ffff" stroke-width="1.0" stroke-linejoin="round" stroke-linecap="butt" d="m217.0 157.7769l-117.00787 97.00787" fill-rule="nonzero"></path><path fill="#000000" fill-opacity="0.0" d="m409.0 365.77692l-117.00787 97.00787" fill-rule="nonzero"></path><path stroke="#00ffff" stroke-width="1.0" stroke-linejoin="round" stroke-linecap="butt" d="m409.0 365.77692l-117.00787 97.00787" fill-rule="nonzero"></path><path fill="#000000" fill-opacity="0.0" d="m240.0 180.7769l-85.00787 74.01575" fill-rule="nonzero"></path><path stroke="#00ffff" stroke-width="2.0" stroke-linejoin="round" stroke-linecap="butt" stroke-dasharray="16.0,6.0,2.0,6.0" d="m240.0 180.7769l-85.00787 74.01575" fill-rule="nonzero"></path><path fill="#000000" fill-opacity="0.0" d="m384.0 340.77692l-85.00787 74.01575" fill-rule="nonzero"></path><path stroke="#00ffff" stroke-width="2.0" stroke-linejoin="round" stroke-linecap="butt" stroke-dasharray="16.0,6.0,2.0,6.0" d="m384.0 340.77692l-85.00787 74.01575" fill-rule="nonzero"></path><path fill="#000000" fill-opacity="0.0" d="m261.0 210.7769l-42.992126 40.0" fill-rule="nonzero"></path><path stroke="#00ffff" stroke-width="3.0" stroke-linejoin="round" stroke-linecap="butt" stroke-dasharray="12.0,9.0,3.0,9.0" d="m261.0 210.7769l-42.992126 40.0" fill-rule="nonzero"></path><path fill="#000000" fill-opacity="0.0" d="m357.0 314.77692l-42.992126 40.0" fill-rule="nonzero"></path><path stroke="#00ffff" stroke-width="3.0" stroke-linejoin="round" stroke-linecap="butt" stroke-dasharray="12.0,9.0,3.0,9.0" d="m357.0 314.77692l-42.992126 40.0" fill-rule="nonzero"></path><path fill="#ffff00" d="m197.00002 262.88834l6.80925 6.1035156E-5l2.104126 -6.1114807l2.104126 6.1114807l6.8092346 -6.1035156E-5l-5.5088196 3.777069l2.1042175 6.11145l-5.5087585 -3.7771301l-5.508774 3.7771301l2.1042175 -6.11145z" fill-rule="nonzero"></path><path stroke="#ffff00" stroke-width="1.0" stroke-linejoin="round" stroke-linecap="butt" d="m197.00002 262.88834l6.80925 6.1035156E-5l2.104126 -6.1114807l2.104126 6.1114807l6.8092346 -6.1035156E-5l-5.5088196 3.777069l2.1042175 6.11145l-5.5087585 -3.7771301l-5.508774 3.7771301l2.1042175 -6.11145z" fill-rule="nonzero"></path><path fill="#ffff00" d="m133.00002 270.88834l6.80925 6.1035156E-5l2.104126 -6.1114807l2.104126 6.1114807l6.8092346 -6.1035156E-5l-5.5088196 3.777069l2.1042175 6.11145l-5.5087585 -3.7771301l-5.508774 3.7771301l2.1042175 -6.11145z" fill-rule="nonzero"></path><path stroke="#ffff00" stroke-width="1.0" stroke-linejoin="round" stroke-linecap="butt" d="m133.00002 270.88834l6.80925 6.1035156E-5l2.104126 -6.1114807l2.104126 6.1114807l6.8092346 -6.1035156E-5l-5.5088196 3.777069l2.1042175 6.11145l-5.5087585 -3.7771301l-5.508774 3.7771301l2.1042175 -6.11145z" fill-rule="nonzero"></path><path fill="#ffff00" d="m69.000015 270.88834l6.8092422 6.1035156E-5l2.104126 -6.1114807l2.104126 6.1114807l6.8092422 -6.1035156E-5l-5.5088196 3.777069l2.1042175 6.11145l-5.508766 -3.7771301l-5.5087585 3.7771301l2.10421 -6.11145z" fill-rule="nonzero"></path><path stroke="#ffff00" stroke-width="1.0" stroke-linejoin="round" stroke-linecap="butt" d="m69.000015 270.88834l6.8092422 6.1035156E-5l2.104126 -6.1114807l2.104126 6.1114807l6.8092422 -6.1035156E-5l-5.5088196 3.777069l2.1042175 6.11145l-5.508766 -3.7771301l-5.5087585 3.7771301l2.10421 -6.11145z" fill-rule="nonzero"></path><path fill="#ffff00" d="m293.00003 366.88834l6.8092346 6.1035156E-5l2.104126 -6.1114807l2.104126 6.1114807l6.8092346 -6.1035156E-5l-5.5088196 3.777069l2.1042175 6.11145l-5.5087585 -3.7771301l-5.5087585 3.7771301l2.1042175 -6.11145z" fill-rule="nonzero"></path><path stroke="#ffff00" stroke-width="1.0" stroke-linejoin="round" stroke-linecap="butt" d="m293.00003 366.88834l6.8092346 6.1035156E-5l2.104126 -6.1114807l2.104126 6.1114807l6.8092346 -6.1035156E-5l-5.5088196 3.777069l2.1042175 6.11145l-5.5087585 -3.7771301l-5.5087585 3.7771301l2.1042175 -6.11145z" fill-rule="nonzero"></path><path fill="#ffff00" d="m277.00003 422.88834l6.8092346 6.1035156E-5l2.104126 -6.1114807l2.104126 6.1114807l6.8092346 -6.1035156E-5l-5.5088196 3.777069l2.1042175 6.11145l-5.5087585 -3.7771301l-5.5087585 3.7771301l2.1042175 -6.11145z" fill-rule="nonzero"></path><path stroke="#ffff00" stroke-width="1.0" stroke-linejoin="round" stroke-linecap="butt" d="m277.00003 422.88834l6.8092346 6.1035156E-5l2.104126 -6.1114807l2.104126 6.1114807l6.8092346 -6.1035156E-5l-5.5088196 3.777069l2.1042175 6.11145l-5.5087585 -3.7771301l-5.5087585 3.7771301l2.1042175 -6.11145z" fill-rule="nonzero"></path><path fill="#ffff00" d="m261.00003 478.88834l6.8092346 6.1035156E-5l2.104126 -6.1114807l2.104126 6.1114807l6.8092346 -6.1035156E-5l-5.5088196 3.777069l2.1042175 6.11145l-5.5087585 -3.7771301l-5.5087585 3.7771301l2.1042175 -6.11145z" fill-rule="nonzero"></path><path stroke="#ffff00" stroke-width="1.0" stroke-linejoin="round" stroke-linecap="butt" d="m261.00003 478.88834l6.8092346 6.1035156E-5l2.104126 -6.1114807l2.104126 6.1114807l6.8092346 -6.1035156E-5l-5.5088196 3.777069l2.1042175 6.11145l-5.5087585 -3.7771301l-5.5087585 3.7771301l2.1042175 -6.11145z" fill-rule="nonzero"></path><path fill="#ffff00" d="m336.72784 112.52898l10.586761 6.0995026l8.420471 -7.0538483l-1.877594 10.823433l10.5868225 6.099388l-11.747192 0.58973694l-1.8774414 10.823486l-5.3825684 -10.458954l-11.747162 0.5898895l8.420593 -7.053734z" fill-rule="nonzero"></path><path stroke="#ffff00" stroke-width="1.0" stroke-linejoin="round" stroke-linecap="butt" d="m336.72784 112.52898l10.586761 6.0995026l8.420471 -7.0538483l-1.877594 10.823433l10.5868225 6.099388l-11.747192 0.58973694l-1.8774414 10.823486l-5.3825684 -10.458954l-11.747162 0.5898895l8.420593 -7.053734z" fill-rule="nonzero"></path></g></svg>

